<?xml version="1.0" encoding="UTF-8"?>
<svg width="227px" height="59px" viewBox="0 0 227 59" version="1.1" xmlns="http://www.w3.org/2000/svg" xmlns:xlink="http://www.w3.org/1999/xlink">
    <!-- Generator: Sketch 53.2 (72643) - https://sketchapp.com -->
    <title>logo-hotel-plaza</title>
    <desc>Created with Sketch.</desc>
    <defs>
        <polygon id="path-1" points="0 58.7012 227.026 58.7012 227.026 0.0002 0 0.0002"></polygon>
        <polygon id="path-3" points="130.4925 47.854 132.6855 47.854 132.6855 58.7012 130.4925 58.7012"></polygon>
        <polygon id="path-5" points="118.8401 47.9043 124.8701 47.9043 124.8701 58.7012 118.8401 58.7012"></polygon>
        <polygon id="path-7" points="105.149201 47.8537 113.65675 47.8537 113.65675 58.7012 105.149201 58.7012"></polygon>
        <polygon id="path-9" points="56.8218262 47.8536 66.7173433 47.8536 66.7173433 58.7012 56.8218262 58.7012"></polygon>
        <polygon id="path-11" points="42.9080703 47.854 52.5705393 47.854 52.5705393 58.7012 42.9080703 58.7012"></polygon>
    </defs>
    <g id="Page-1" stroke="none" stroke-width="1" fill="none" fill-rule="evenodd">
        <g id="Artboard" transform="translate(-112.000000, -81.000000)">
            <g id="logo-hotel-plaza" transform="translate(112.000000, 81.000000)">
                <path d="M19.3613,26.7368 C19.3613,26.8478 19.3333,26.9448 19.2783,27.0278 C19.2223,27.1108 19.1253,27.1758 18.9873,27.2248 C18.8483,27.2738 18.6653,27.3148 18.4373,27.3488 C18.2083,27.3838 17.9273,27.4018 17.5953,27.4018 C17.2353,27.4018 16.9443,27.3838 16.7233,27.3488 C16.5013,27.3148 16.3213,27.2738 16.1823,27.2248 C16.0443,27.1758 15.9473,27.1108 15.8923,27.0278 C15.8363,26.9448 15.8093,26.8478 15.8093,26.7368 L15.8093,14.8118 L3.5733,14.8118 L3.5733,26.7368 C3.5733,26.8478 3.5453,26.9448 3.4893,27.0278 C3.4343,27.1108 3.3373,27.1758 3.1993,27.2248 C3.0603,27.2738 2.8773,27.3148 2.6483,27.3488 C2.4203,27.3838 2.1323,27.4018 1.7863,27.4018 C1.4543,27.4018 1.1703,27.3838 0.9343,27.3488 C0.6993,27.3148 0.5123,27.2738 0.3743,27.2248 C0.2353,27.1758 0.1383,27.1108 0.0833,27.0278 C0.0273,26.9448 0.0003,26.8478 0.0003,26.7368 L0.0003,0.9348 C0.0003,0.8248 0.0273,0.7278 0.0833,0.6448 C0.1383,0.5618 0.2353,0.4958 0.3743,0.4478 C0.5123,0.3988 0.6993,0.3568 0.9343,0.3228 C1.1703,0.2888 1.4543,0.2708 1.7863,0.2708 C2.1323,0.2708 2.4203,0.2888 2.6483,0.3228 C2.8773,0.3568 3.0603,0.3988 3.1993,0.4478 C3.3373,0.4958 3.4343,0.5618 3.4893,0.6448 C3.5453,0.7278 3.5733,0.8248 3.5733,0.9348 L3.5733,11.6968 L15.8093,11.6968 L15.8093,0.9348 C15.8093,0.8248 15.8363,0.7278 15.8923,0.6448 C15.9473,0.5618 16.0443,0.4958 16.1823,0.4478 C16.3213,0.3988 16.5013,0.3568 16.7233,0.3228 C16.9443,0.2888 17.2353,0.2708 17.5953,0.2708 C17.9273,0.2708 18.2083,0.2888 18.4373,0.3228 C18.6653,0.3568 18.8483,0.3988 18.9873,0.4478 C19.1253,0.4958 19.2223,0.5618 19.2783,0.6448 C19.3333,0.7278 19.3613,0.8248 19.3613,0.9348 L19.3613,26.7368 Z" id="Fill-1" fill="#FFFFFF"></path>
                <path d="M45.2456,13.7739 C45.2456,12.2509 45.1106,10.8349 44.8406,9.5259 C44.5716,8.2159 44.1216,7.0819 43.4926,6.1189 C42.8626,5.1559 42.0226,4.4049 40.9716,3.8649 C39.9206,3.3249 38.6206,3.0539 37.0716,3.0539 C35.5216,3.0539 34.2216,3.3449 33.1706,3.9269 C32.1196,4.5079 31.2656,5.2849 30.6086,6.2529 C29.9516,7.2229 29.4806,8.3549 29.1976,9.6499 C28.9136,10.9449 28.7716,12.3059 28.7716,13.7319 C28.7716,15.3109 28.9036,16.7649 29.1656,18.0949 C29.4296,19.4239 29.8716,20.5709 30.4946,21.5329 C31.1166,22.4959 31.9496,23.2439 32.9946,23.7769 C34.0386,24.3099 35.3496,24.5769 36.9256,24.5769 C38.4886,24.5769 39.8026,24.2859 40.8686,23.7039 C41.9326,23.1219 42.7906,22.3369 43.4406,21.3459 C44.0906,20.3559 44.5546,19.2099 44.8306,17.9079 C45.1076,16.6059 45.2456,15.2279 45.2456,13.7739 M49.0266,13.5249 C49.0266,15.6989 48.7696,17.6589 48.2576,19.4039 C47.7456,21.1489 46.9806,22.6339 45.9626,23.8599 C44.9446,25.0859 43.6666,26.0269 42.1296,26.6849 C40.5926,27.3419 38.7986,27.6709 36.7486,27.6709 C34.7266,27.6709 32.9786,27.3709 31.5036,26.7679 C30.0286,26.1659 28.8096,25.2899 27.8476,24.1399 C26.8846,22.9909 26.1676,21.5639 25.6976,19.8609 C25.2266,18.1569 24.9916,16.1979 24.9916,13.9819 C24.9916,11.8629 25.2466,9.9379 25.7596,8.2069 C26.2716,6.4749 27.0406,5.0039 28.0656,3.7919 C29.0906,2.5809 30.3716,1.6449 31.9086,0.9879 C33.4466,0.3299 35.2396,0.0009 37.2896,0.0009 C39.2696,0.0009 40.9946,0.2979 42.4616,0.8939 C43.9296,1.4899 45.1526,2.3589 46.1286,3.5019 C47.1046,4.6439 47.8316,6.0559 48.3096,7.7389 C48.7876,9.4209 49.0266,11.3499 49.0266,13.5249" id="Fill-3" fill="#FFFFFF"></path>
                <path d="M70.3789,1.9331 C70.3789,2.1961 70.3649,2.4241 70.3369,2.6181 C70.3099,2.8121 70.2649,2.9681 70.2019,3.0851 C70.1399,3.2041 70.0639,3.2901 69.9739,3.3451 C69.8829,3.4011 69.7829,3.4281 69.6719,3.4281 L62.1109,3.4281 L62.1109,26.7371 C62.1109,26.8481 62.0829,26.9451 62.0279,27.0281 C61.9719,27.1111 61.8749,27.1761 61.7369,27.2251 C61.5979,27.2741 61.4149,27.3151 61.1869,27.3491 C60.9579,27.3841 60.6709,27.4021 60.3239,27.4021 C59.9919,27.4021 59.7079,27.3841 59.4729,27.3491 C59.2369,27.3151 59.0499,27.2741 58.9119,27.2251 C58.7729,27.1761 58.6759,27.1111 58.6209,27.0281 C58.5659,26.9451 58.5379,26.8481 58.5379,26.7371 L58.5379,3.4281 L50.9759,3.4281 C50.8649,3.4281 50.7649,3.4011 50.6749,3.3451 C50.5849,3.2901 50.5119,3.2041 50.4569,3.0851 C50.4009,2.9681 50.3559,2.8121 50.3219,2.6181 C50.2869,2.4241 50.2699,2.1961 50.2699,1.9331 C50.2699,1.6691 50.2869,1.4381 50.3219,1.2371 C50.3559,1.0361 50.4009,0.8731 50.4569,0.7481 C50.5119,0.6231 50.5849,0.5341 50.6749,0.4781 C50.7649,0.4231 50.8649,0.3951 50.9759,0.3951 L69.6719,0.3951 C69.7829,0.3951 69.8829,0.4231 69.9739,0.4781 C70.0639,0.5341 70.1399,0.6231 70.2019,0.7481 C70.2649,0.8731 70.3099,1.0361 70.3369,1.2371 C70.3649,1.4381 70.3789,1.6691 70.3789,1.9331" id="Fill-5" fill="#FFFFFF"></path>
                <path d="M89.2207,25.8022 C89.2207,26.0512 89.2067,26.2692 89.1787,26.4562 C89.1517,26.6432 89.1027,26.7992 89.0337,26.9232 C88.9647,27.0482 88.8847,27.1382 88.7947,27.1942 C88.7047,27.2492 88.6047,27.2772 88.4937,27.2772 L75.5937,27.2772 C75.2747,27.2772 74.9727,27.1692 74.6897,26.9542 C74.4057,26.7402 74.2637,26.3632 74.2637,25.8232 L74.2637,1.8492 C74.2637,1.3092 74.4057,0.9322 74.6897,0.7172 C74.9727,0.5022 75.2747,0.3952 75.5937,0.3952 L88.3477,0.3952 C88.4587,0.3952 88.5587,0.4232 88.6497,0.4782 C88.7397,0.5332 88.8117,0.6232 88.8677,0.7482 C88.9227,0.8732 88.9677,1.0292 89.0027,1.2162 C89.0367,1.4032 89.0547,1.6352 89.0547,1.9112 C89.0547,2.1612 89.0367,2.3792 89.0027,2.5662 C88.9677,2.7532 88.9227,2.9062 88.8677,3.0232 C88.8117,3.1412 88.7397,3.2282 88.6497,3.2822 C88.5587,3.3382 88.4587,3.3652 88.3477,3.3652 L77.8367,3.3652 L77.8367,11.8002 L86.8527,11.8002 C86.9637,11.8002 87.0637,11.8312 87.1537,11.8942 C87.2437,11.9562 87.3197,12.0422 87.3827,12.1542 C87.4447,12.2642 87.4897,12.4162 87.5177,12.6112 C87.5447,12.8042 87.5587,13.0322 87.5587,13.2962 C87.5587,13.5452 87.5447,13.7602 87.5177,13.9402 C87.4897,14.1202 87.4447,14.2652 87.3827,14.3762 C87.3197,14.4872 87.2437,14.5672 87.1537,14.6142 C87.0637,14.6632 86.9637,14.6882 86.8527,14.6882 L77.8367,14.6882 L77.8367,24.3062 L88.4937,24.3062 C88.6047,24.3062 88.7047,24.3342 88.7947,24.3892 C88.8847,24.4452 88.9647,24.5312 89.0337,24.6492 C89.1027,24.7672 89.1517,24.9192 89.1787,25.1062 C89.2067,25.2922 89.2207,25.5252 89.2207,25.8022" id="Fill-7" fill="#FFFFFF"></path>
                <path d="M108.9766,25.7192 C108.9766,25.9952 108.9626,26.2282 108.9346,26.4142 C108.9076,26.6022 108.8626,26.7612 108.8006,26.8922 C108.7376,27.0242 108.6616,27.1202 108.5716,27.1832 C108.4816,27.2452 108.3746,27.2772 108.2496,27.2772 L96.3676,27.2772 C96.0486,27.2772 95.7476,27.1692 95.4636,26.9542 C95.1796,26.7402 95.0376,26.3632 95.0376,25.8232 L95.0376,0.9352 C95.0376,0.8242 95.0646,0.7282 95.1206,0.6452 C95.1756,0.5622 95.2726,0.4952 95.4116,0.4482 C95.5496,0.3992 95.7366,0.3572 95.9726,0.3232 C96.2076,0.2882 96.4916,0.2712 96.8246,0.2712 C97.1696,0.2712 97.4576,0.2882 97.6856,0.3232 C97.9146,0.3572 98.0986,0.3992 98.2366,0.4482 C98.3746,0.4952 98.4726,0.5622 98.5276,0.6452 C98.5826,0.7282 98.6106,0.8242 98.6106,0.9352 L98.6106,24.1812 L108.2496,24.1812 C108.3746,24.1812 108.4816,24.2122 108.5716,24.2752 C108.6616,24.3372 108.7376,24.4272 108.8006,24.5452 C108.8626,24.6622 108.9076,24.8192 108.9346,25.0122 C108.9626,25.2062 108.9766,25.4422 108.9766,25.7192" id="Fill-9" fill="#FFFFFF"></path>
                <path d="M135.2969,8.5591 C135.2969,7.4651 135.0929,6.5511 134.6849,5.8171 C134.2759,5.0831 133.7709,4.5371 133.1679,4.1761 C132.5659,3.8161 131.9429,3.5871 131.2979,3.4911 C130.6539,3.3941 130.0269,3.3451 129.4179,3.3451 L126.1149,3.3451 L126.1149,14.1261 L129.3349,14.1261 C130.4149,14.1261 131.3119,13.9891 132.0259,13.7111 C132.7379,13.4351 133.3369,13.0501 133.8219,12.5581 C134.3069,12.0671 134.6739,11.4781 134.9229,10.7921 C135.1729,10.1071 135.2969,9.3631 135.2969,8.5591 M139.0579,8.2691 C139.0579,9.6121 138.8359,10.8241 138.3929,11.9041 C137.9489,12.9841 137.3159,13.9061 136.4909,14.6671 C135.6669,15.4291 134.6559,16.0171 133.4589,16.4331 C132.2609,16.8481 130.8309,17.0561 129.1689,17.0561 L126.1149,17.0561 L126.1149,26.7371 C126.1149,26.8481 126.0839,26.9451 126.0219,27.0281 C125.9589,27.1111 125.8619,27.1761 125.7309,27.2251 C125.5989,27.2741 125.4189,27.3151 125.1909,27.3491 C124.9619,27.3841 124.6749,27.4021 124.3279,27.4021 C123.9829,27.4021 123.6949,27.3841 123.4669,27.3491 C123.2379,27.3151 123.0539,27.2741 122.9159,27.2251 C122.7769,27.1761 122.6799,27.1111 122.6249,27.0281 C122.5689,26.9451 122.5419,26.8481 122.5419,26.7371 L122.5419,1.9331 C122.5419,1.3781 122.6879,0.9841 122.9789,0.7481 C123.2689,0.5131 123.5939,0.3951 123.9539,0.3951 L129.7089,0.3951 C130.2909,0.3951 130.8479,0.4191 131.3809,0.4681 C131.9139,0.5171 132.5449,0.6211 133.2719,0.7801 C133.9989,0.9391 134.7389,1.2371 135.4939,1.6731 C136.2489,2.1091 136.8899,2.6461 137.4159,3.2831 C137.9429,3.9201 138.3479,4.6581 138.6309,5.4961 C138.9149,6.3331 139.0579,7.2581 139.0579,8.2691" id="Fill-11" fill="#FFFFFF"></path>
                <path d="M158.4609,25.7192 C158.4609,25.9952 158.4459,26.2282 158.4189,26.4142 C158.3919,26.6022 158.3469,26.7612 158.2839,26.8922 C158.2219,27.0242 158.1459,27.1202 158.0559,27.1832 C157.9659,27.2452 157.8579,27.2772 157.7329,27.2772 L145.8509,27.2772 C145.5319,27.2772 145.2309,27.1692 144.9469,26.9542 C144.6629,26.7402 144.5219,26.3632 144.5219,25.8232 L144.5219,0.9352 C144.5219,0.8242 144.5489,0.7282 144.6049,0.6452 C144.6589,0.5622 144.7569,0.4952 144.8959,0.4482 C145.0329,0.3992 145.2209,0.3572 145.4559,0.3232 C145.6909,0.2882 145.9759,0.2712 146.3079,0.2712 C146.6539,0.2712 146.9409,0.2882 147.1699,0.3232 C147.3979,0.3572 147.5819,0.3992 147.7209,0.4482 C147.8579,0.4952 147.9559,0.5622 148.0119,0.6452 C148.0659,0.7282 148.0949,0.8242 148.0949,0.9352 L148.0949,24.1812 L157.7329,24.1812 C157.8579,24.1812 157.9659,24.2122 158.0559,24.2752 C158.1459,24.3372 158.2219,24.4272 158.2839,24.5452 C158.3469,24.6622 158.3919,24.8192 158.4189,25.0122 C158.4459,25.2062 158.4609,25.4422 158.4609,25.7192" id="Fill-13" fill="#FFFFFF"></path>
                <path d="M170.9658,3.9683 L170.9448,3.9683 L166.3128,17.3673 L175.6608,17.3673 L170.9658,3.9683 Z M182.5368,26.0093 C182.6478,26.3143 182.7058,26.5603 182.7138,26.7473 C182.7208,26.9343 182.6688,27.0763 182.5578,27.1733 C182.4468,27.2703 182.2638,27.3323 182.0078,27.3603 C181.7508,27.3873 181.4078,27.4023 180.9798,27.4023 C180.5498,27.4023 180.2068,27.3913 179.9508,27.3703 C179.6948,27.3493 179.5008,27.3153 179.3688,27.2663 C179.2368,27.2183 179.1408,27.1523 179.0778,27.0693 C179.0158,26.9863 178.9568,26.8823 178.9018,26.7573 L176.5958,20.2133 L165.4188,20.2133 L163.2178,26.6743 C163.1758,26.7993 163.1198,26.9063 163.0508,26.9963 C162.9818,27.0863 162.8808,27.1623 162.7498,27.2253 C162.6178,27.2873 162.4308,27.3323 162.1898,27.3603 C161.9458,27.3873 161.6308,27.4023 161.2438,27.4023 C160.8418,27.4023 160.5128,27.3843 160.2568,27.3493 C160.0008,27.3153 159.8198,27.2493 159.7168,27.1523 C159.6128,27.0553 159.5648,26.9133 159.5708,26.7263 C159.5778,26.5393 159.6368,26.2933 159.7478,25.9893 L168.7638,1.0193 C168.8198,0.8663 168.8918,0.7413 168.9828,0.6453 C169.0718,0.5483 169.2028,0.4713 169.3768,0.4163 C169.5498,0.3613 169.7718,0.3223 170.0418,0.3023 C170.3118,0.2803 170.6538,0.2713 171.0698,0.2713 C171.5128,0.2713 171.8798,0.2803 172.1708,0.3023 C172.4618,0.3223 172.6968,0.3613 172.8768,0.4163 C173.0568,0.4713 173.1948,0.5513 173.2928,0.6553 C173.3898,0.7593 173.4658,0.8873 173.5218,1.0393 L182.5368,26.0093 Z" id="Fill-15" fill="#FFFFFF"></path>
                <path d="M202.4805,25.7808 C202.4805,26.0448 202.4655,26.2688 202.4385,26.4568 C202.4115,26.6428 202.3665,26.7998 202.3035,26.9238 C202.2415,27.0488 202.1655,27.1378 202.0755,27.1938 C201.9845,27.2498 201.8775,27.2768 201.7525,27.2768 L185.8815,27.2768 C185.5215,27.2768 185.2305,27.1668 185.0085,26.9448 C184.7875,26.7228 184.6765,26.3698 184.6765,25.8848 L184.6765,25.1168 C184.6765,24.9368 184.6875,24.7698 184.7085,24.6178 C184.7285,24.4658 184.7735,24.3028 184.8425,24.1298 C184.9125,23.9568 185.0085,23.7628 185.1335,23.5488 C185.2585,23.3338 185.4115,23.0808 185.5905,22.7898 L197.9935,3.3868 L185.7365,3.3868 C185.5975,3.3868 185.4795,3.3588 185.3825,3.3028 C185.2865,3.2488 185.2075,3.1618 185.1445,3.0448 C185.0825,2.9268 185.0375,2.7738 185.0085,2.5878 C184.9815,2.3998 184.9675,2.1818 184.9675,1.9328 C184.9675,1.6558 184.9815,1.4208 185.0085,1.2258 C185.0375,1.0328 185.0825,0.8738 185.1445,0.7488 C185.2075,0.6238 185.2865,0.5338 185.3825,0.4778 C185.4795,0.4238 185.5975,0.3948 185.7365,0.3948 L200.6935,0.3948 C201.0675,0.3948 201.3615,0.5028 201.5765,0.7178 C201.7915,0.9318 201.8985,1.2608 201.8985,1.7048 L201.8985,2.5138 C201.8985,2.7358 201.8845,2.9328 201.8565,3.1058 C201.8295,3.2798 201.7805,3.4568 201.7115,3.6358 C201.6415,3.8158 201.5485,4.0098 201.4305,4.2178 C201.3135,4.4258 201.1575,4.6678 200.9635,4.9448 L188.6245,24.2638 L201.7525,24.2638 C201.9885,24.2638 202.1685,24.3828 202.2935,24.6178 C202.4185,24.8528 202.4805,25.2408 202.4805,25.7808" id="Fill-17" fill="#FFFFFF"></path>
                <path d="M215.2773,3.9683 L215.2563,3.9683 L210.6243,17.3673 L219.9723,17.3673 L215.2773,3.9683 Z M226.8483,26.0093 C226.9593,26.3143 227.0173,26.5603 227.0253,26.7473 C227.0323,26.9343 226.9803,27.0763 226.8693,27.1733 C226.7583,27.2703 226.5753,27.3323 226.3193,27.3603 C226.0623,27.3873 225.7193,27.4023 225.2913,27.4023 C224.8613,27.4023 224.5183,27.3913 224.2623,27.3703 C224.0063,27.3493 223.8123,27.3153 223.6803,27.2663 C223.5483,27.2183 223.4523,27.1523 223.3893,27.0693 C223.3273,26.9863 223.2683,26.8823 223.2133,26.7573 L220.9073,20.2133 L209.7303,20.2133 L207.5293,26.6743 C207.4873,26.7993 207.4313,26.9063 207.3623,26.9963 C207.2933,27.0863 207.1923,27.1623 207.0613,27.2253 C206.9293,27.2873 206.7423,27.3323 206.5013,27.3603 C206.2573,27.3873 205.9423,27.4023 205.5553,27.4023 C205.1533,27.4023 204.8243,27.3843 204.5683,27.3493 C204.3123,27.3153 204.1313,27.2493 204.0283,27.1523 C203.9243,27.0553 203.8763,26.9133 203.8823,26.7263 C203.8893,26.5393 203.9483,26.2933 204.0593,25.9893 L213.0753,1.0193 C213.1313,0.8663 213.2033,0.7413 213.2943,0.6453 C213.3833,0.5483 213.5143,0.4713 213.6883,0.4163 C213.8613,0.3613 214.0833,0.3223 214.3533,0.3023 C214.6233,0.2803 214.9653,0.2713 215.3813,0.2713 C215.8243,0.2713 216.1913,0.2803 216.4823,0.3023 C216.7733,0.3223 217.0083,0.3613 217.1883,0.4163 C217.3683,0.4713 217.5063,0.5513 217.6043,0.6553 C217.7013,0.7593 217.7773,0.8873 217.8333,1.0393 L226.8483,26.0093 Z" id="Fill-19" fill="#FFFFFF"></path>
                <path d="M77.8418,57.7378 C77.8418,57.9048 77.8348,58.0448 77.8208,58.1578 C77.8068,58.2708 77.7858,58.3658 77.7588,58.4398 C77.7308,58.5148 77.6958,58.5688 77.6548,58.6018 C77.6128,58.6348 77.5648,58.6518 77.5088,58.6518 L72.5838,58.6518 C72.4018,58.6518 72.2478,58.5978 72.1228,58.4898 C71.9988,58.3828 71.9358,58.2068 71.9358,57.9628 L71.9358,48.2028 C71.9358,48.1478 71.9538,48.0978 71.9898,48.0528 C72.0268,48.0088 72.0858,47.9728 72.1688,47.9458 C72.2518,47.9178 72.3638,47.8958 72.5058,47.8798 C72.6468,47.8628 72.8218,47.8538 73.0328,47.8538 C73.2488,47.8538 73.4258,47.8628 73.5648,47.8798 C73.7028,47.8958 73.8138,47.9178 73.8968,47.9458 C73.9798,47.9728 74.0388,48.0088 74.0748,48.0528 C74.1108,48.0978 74.1288,48.1478 74.1288,48.2028 L74.1288,56.8488 L77.5088,56.8488 C77.5648,56.8488 77.6128,56.8648 77.6548,56.8948 C77.6958,56.9258 77.7308,56.9748 77.7588,57.0448 C77.7858,57.1138 77.8068,57.2058 77.8208,57.3188 C77.8348,57.4318 77.8418,57.5718 77.8418,57.7378" id="Fill-27" fill="#FFFFFF"></path>
                <path d="M88.8804,57.7378 C88.8804,57.9048 88.8734,58.0448 88.8594,58.1578 C88.8454,58.2708 88.8244,58.3658 88.7974,58.4398 C88.7694,58.5148 88.7344,58.5688 88.6934,58.6018 C88.6514,58.6348 88.6034,58.6518 88.5474,58.6518 L83.6224,58.6518 C83.4404,58.6518 83.2864,58.5978 83.1614,58.4898 C83.0374,58.3828 82.9744,58.2068 82.9744,57.9628 L82.9744,48.2028 C82.9744,48.1478 82.9924,48.0978 83.0284,48.0528 C83.0654,48.0088 83.1244,47.9728 83.2074,47.9458 C83.2904,47.9178 83.4024,47.8958 83.5444,47.8798 C83.6854,47.8628 83.8604,47.8538 84.0714,47.8538 C84.2874,47.8538 84.4644,47.8628 84.6034,47.8798 C84.7414,47.8958 84.8524,47.9178 84.9354,47.9458 C85.0184,47.9728 85.0774,48.0088 85.1134,48.0528 C85.1494,48.0978 85.1674,48.1478 85.1674,48.2028 L85.1674,56.8488 L88.5474,56.8488 C88.6034,56.8488 88.6514,56.8648 88.6934,56.8948 C88.7344,56.9258 88.7694,56.9748 88.7974,57.0448 C88.8244,57.1138 88.8454,57.2058 88.8594,57.3188 C88.8734,57.4318 88.8804,57.5718 88.8804,57.7378" id="Fill-29" fill="#FFFFFF"></path>
                <path d="M100.3838,57.7964 C100.3838,57.9564 100.3768,58.0914 100.3628,58.1984 C100.3498,58.3074 100.3288,58.3944 100.3008,58.4604 C100.2728,58.5264 100.2388,58.5754 100.1968,58.6064 C100.1558,58.6364 100.1098,58.6514 100.0598,58.6514 L94.6608,58.6514 C94.4788,58.6514 94.3248,58.5984 94.1998,58.4894 C94.0758,58.3824 94.0128,58.2064 94.0128,57.9624 L94.0128,48.5934 C94.0128,48.3504 94.0758,48.1744 94.1998,48.0664 C94.3248,47.9584 94.4788,47.9034 94.6608,47.9034 L100.0268,47.9034 C100.0768,47.9034 100.1208,47.9174 100.1598,47.9454 C100.1978,47.9734 100.2318,48.0224 100.2588,48.0914 C100.2868,48.1604 100.3078,48.2484 100.3218,48.3574 C100.3358,48.4644 100.3418,48.6024 100.3418,48.7684 C100.3418,48.9234 100.3358,49.0544 100.3218,49.1624 C100.3078,49.2704 100.2868,49.3584 100.2588,49.4244 C100.2318,49.4904 100.1978,49.5384 100.1598,49.5694 C100.1208,49.6004 100.0768,49.6144 100.0268,49.6144 L96.1898,49.6144 L96.1898,52.2394 L99.4368,52.2394 C99.4868,52.2394 99.5328,52.2554 99.5738,52.2854 C99.6158,52.3164 99.6508,52.3624 99.6778,52.4264 C99.7058,52.4904 99.7268,52.5754 99.7398,52.6844 C99.7538,52.7924 99.7608,52.9234 99.7608,53.0784 C99.7608,53.2394 99.7538,53.3724 99.7398,53.4774 C99.7268,53.5824 99.7058,53.6674 99.6778,53.7314 C99.6508,53.7944 99.6158,53.8404 99.5738,53.8674 C99.5328,53.8954 99.4868,53.9094 99.4368,53.9094 L96.1898,53.9094 L96.1898,56.9414 L100.0598,56.9414 C100.1098,56.9414 100.1558,56.9564 100.1968,56.9864 C100.2388,57.0174 100.2728,57.0664 100.3008,57.1324 C100.3288,57.1984 100.3498,57.2854 100.3628,57.3934 C100.3768,57.5014 100.3838,57.6364 100.3838,57.7964" id="Fill-31" fill="#FFFFFF"></path>
                <path d="M145.2441,57.7964 C145.2441,57.9564 145.2371,58.0914 145.2231,58.1984 C145.2091,58.3074 145.1881,58.3944 145.1611,58.4604 C145.1331,58.5264 145.0981,58.5754 145.0571,58.6064 C145.0151,58.6364 144.9701,58.6514 144.9201,58.6514 L139.5211,58.6514 C139.3391,58.6514 139.1841,58.5984 139.0601,58.4894 C138.9351,58.3824 138.8731,58.2064 138.8731,57.9624 L138.8731,48.5934 C138.8731,48.3504 138.9351,48.1744 139.0601,48.0664 C139.1841,47.9584 139.3391,47.9034 139.5211,47.9034 L144.8871,47.9034 C144.9361,47.9034 144.9801,47.9174 145.0191,47.9454 C145.0581,47.9734 145.0921,48.0224 145.1191,48.0914 C145.1461,48.1604 145.1681,48.2484 145.1821,48.3574 C145.1951,48.4644 145.2021,48.6024 145.2021,48.7684 C145.2021,48.9234 145.1951,49.0544 145.1821,49.1624 C145.1681,49.2704 145.1461,49.3584 145.1191,49.4244 C145.0921,49.4904 145.0581,49.5384 145.0191,49.5694 C144.9801,49.6004 144.9361,49.6144 144.8871,49.6144 L141.0501,49.6144 L141.0501,52.2394 L144.2971,52.2394 C144.3471,52.2394 144.3921,52.2554 144.4331,52.2854 C144.4751,52.3164 144.5101,52.3624 144.5381,52.4264 C144.5651,52.4904 144.5861,52.5754 144.6001,52.6844 C144.6141,52.7924 144.6211,52.9234 144.6211,53.0784 C144.6211,53.2394 144.6141,53.3724 144.6001,53.4774 C144.5861,53.5824 144.5651,53.6674 144.5381,53.7314 C144.5101,53.7944 144.4751,53.8404 144.4331,53.8674 C144.3921,53.8954 144.3471,53.9094 144.2971,53.9094 L141.0501,53.9094 L141.0501,56.9414 L144.9201,56.9414 C144.9701,56.9414 145.0151,56.9564 145.0571,56.9864 C145.0981,57.0174 145.1331,57.0664 145.1611,57.1324 C145.1881,57.1984 145.2091,57.2854 145.2231,57.3934 C145.2371,57.5014 145.2441,57.6364 145.2441,57.7964" id="Fill-42" fill="#FFFFFF"></path>
                <path d="M156.9219,57.7378 C156.9219,57.9048 156.9149,58.0448 156.9009,58.1578 C156.8879,58.2708 156.8669,58.3658 156.8389,58.4398 C156.8119,58.5148 156.7769,58.5688 156.7349,58.6018 C156.6939,58.6348 156.6459,58.6518 156.5899,58.6518 L151.6649,58.6518 C151.4829,58.6518 151.3279,58.5978 151.2039,58.4898 C151.0789,58.3828 151.0169,58.2068 151.0169,57.9628 L151.0169,48.2028 C151.0169,48.1478 151.0349,48.0978 151.0709,48.0528 C151.1069,48.0088 151.1659,47.9728 151.2489,47.9458 C151.3319,47.9178 151.4439,47.8958 151.5859,47.8798 C151.7269,47.8628 151.9019,47.8538 152.1129,47.8538 C152.3289,47.8538 152.5059,47.8628 152.6449,47.8798 C152.7829,47.8958 152.8939,47.9178 152.9769,47.9458 C153.0609,47.9728 153.1189,48.0088 153.1549,48.0528 C153.1919,48.0978 153.2099,48.1478 153.2099,48.2028 L153.2099,56.8488 L156.5899,56.8488 C156.6459,56.8488 156.6939,56.8648 156.7349,56.8948 C156.7769,56.9258 156.8119,56.9748 156.8389,57.0448 C156.8669,57.1138 156.8879,57.2058 156.9009,57.3188 C156.9149,57.4318 156.9219,57.5718 156.9219,57.7378" id="Fill-44" fill="#FFFFFF"></path>
                <path d="M168.7441,53.1948 C168.7441,52.6848 168.6841,52.2128 168.5651,51.7748 C168.4461,51.3378 168.2551,50.9578 167.9921,50.6358 C167.7291,50.3158 167.3911,50.0648 166.9791,49.8848 C166.5661,49.7058 166.0251,49.6148 165.3551,49.6148 L164.2511,49.6148 L164.2511,56.9238 L165.3891,56.9238 C165.9861,56.9238 166.4901,56.8468 166.9001,56.6918 C167.3091,56.5368 167.6511,56.3018 167.9261,55.9898 C168.2001,55.6768 168.4051,55.2878 168.5411,54.8228 C168.6761,54.3578 168.7441,53.8148 168.7441,53.1948 M171.0031,53.1208 C171.0031,54.1058 170.8751,54.9488 170.6171,55.6488 C170.3591,56.3498 169.9901,56.9218 169.5081,57.3648 C169.0261,57.8068 168.4401,58.1318 167.7521,58.3408 C167.0621,58.5488 166.2411,58.6518 165.2891,58.6518 L162.7231,58.6518 C162.5401,58.6518 162.3861,58.5978 162.2621,58.4898 C162.1371,58.3818 162.0741,58.2068 162.0741,57.9628 L162.0741,48.5928 C162.0741,48.3498 162.1371,48.1738 162.2621,48.0658 C162.3861,47.9588 162.5401,47.9038 162.7231,47.9038 L165.4791,47.9038 C166.4371,47.9038 167.2501,48.0158 167.9181,48.2408 C168.5851,48.4648 169.1461,48.7978 169.6031,49.2368 C170.0601,49.6768 170.4081,50.2208 170.6461,50.8698 C170.8841,51.5168 171.0031,52.2668 171.0031,53.1208" id="Fill-46" fill="#FFFFFF"></path>
                <mask id="mask-2" fill="white">
                    <use xlink:href="#path-1"></use>
                </mask>
                <g id="Clip-49"></g>
                <polygon id="Fill-48" fill="#FFFFFF" mask="url(#mask-2)" points="23.576 36.3552 199.654 36.3552 199.654 35.4592 23.576 35.4592"></polygon>
                <mask id="mask-4" fill="white">
                    <use xlink:href="#path-3"></use>
                </mask>
                <g id="Clip-40"></g>
                <path d="M132.6855,58.353 C132.6855,58.409 132.6665,58.458 132.6305,58.502 C132.5945,58.546 132.5365,58.582 132.4525,58.61 C132.3695,58.638 132.2585,58.661 132.1205,58.677 C131.9815,58.694 131.8045,58.702 131.5885,58.702 C131.3775,58.702 131.2025,58.694 131.0615,58.677 C130.9195,58.661 130.8075,58.638 130.7245,58.61 C130.6415,58.582 130.5815,58.546 130.5465,58.502 C130.5105,58.458 130.4925,58.409 130.4925,58.353 L130.4925,48.203 C130.4925,48.148 130.5105,48.098 130.5465,48.053 C130.5815,48.009 130.6435,47.973 130.7295,47.946 C130.8145,47.917 130.9265,47.896 131.0655,47.879 C131.2045,47.863 131.3775,47.854 131.5885,47.854 C131.8045,47.854 131.9815,47.863 132.1205,47.879 C132.2585,47.896 132.3695,47.917 132.4525,47.946 C132.5365,47.973 132.5945,48.009 132.6305,48.053 C132.6665,48.098 132.6855,48.148 132.6855,48.203 L132.6855,58.353 Z" id="Fill-39" fill="#FFFFFF" mask="url(#mask-4)"></path>
                <mask id="mask-6" fill="white">
                    <use xlink:href="#path-5"></use>
                </mask>
                <g id="Clip-37"></g>
                <path d="M124.8701,48.8013 C124.8701,48.9673 124.8631,49.1073 124.8491,49.2203 C124.8361,49.3343 124.8131,49.4243 124.7831,49.4903 C124.7521,49.5573 124.7181,49.6073 124.6791,49.6403 C124.6411,49.6733 124.5961,49.6903 124.5461,49.6903 L121.0331,49.6903 L121.0331,52.5803 L124.3301,52.5803 C124.3801,52.5803 124.4251,52.5943 124.4631,52.6213 C124.5021,52.6503 124.5361,52.6973 124.5671,52.7633 C124.5981,52.8293 124.6191,52.9183 124.6341,53.0293 C124.6471,53.1393 124.6541,53.2783 124.6541,53.4443 C124.6541,53.6103 124.6471,53.7483 124.6341,53.8593 C124.6191,53.9703 124.5981,54.0623 124.5671,54.1333 C124.5361,54.2053 124.5021,54.2563 124.4631,54.2873 C124.4251,54.3183 124.3801,54.3323 124.3301,54.3323 L121.0331,54.3323 L121.0331,58.3363 C121.0331,58.3973 121.0161,58.4493 120.9831,58.4933 C120.9501,58.5383 120.8911,58.5753 120.8051,58.6063 C120.7191,58.6363 120.6061,58.6603 120.4681,58.6773 C120.3291,58.6943 120.1521,58.7013 119.9361,58.7013 C119.7251,58.7013 119.5501,58.6943 119.4091,58.6773 C119.2671,58.6603 119.1551,58.6363 119.0721,58.6063 C118.9891,58.5753 118.9301,58.5383 118.8941,58.4933 C118.8581,58.4493 118.8401,58.3973 118.8401,58.3363 L118.8401,48.5933 C118.8401,48.3503 118.9021,48.1743 119.0271,48.0663 C119.1511,47.9583 119.3061,47.9043 119.4881,47.9043 L124.5461,47.9043 C124.5961,47.9043 124.6411,47.9193 124.6791,47.9493 C124.7181,47.9803 124.7521,48.0303 124.7831,48.0993 C124.8131,48.1683 124.8361,48.2613 124.8491,48.3773 C124.8631,48.4933 124.8701,48.6353 124.8701,48.8013" id="Fill-36" fill="#FFFFFF" mask="url(#mask-6)"></path>
                <mask id="mask-8" fill="white">
                    <use xlink:href="#path-7"></use>
                </mask>
                <g id="Clip-34"></g>
                <path d="M110.5005,54.5737 L110.5005,58.3527 C110.5005,58.4087 110.4825,58.4587 110.4465,58.5027 C110.4105,58.5467 110.3515,58.5827 110.2685,58.6097 C110.1855,58.6377 110.0725,58.6607 109.9315,58.6777 C109.7905,58.6937 109.6145,58.7017 109.4045,58.7017 C109.1885,58.7017 109.0105,58.6937 108.8725,58.6777 C108.7335,58.6607 108.6225,58.6377 108.5365,58.6097 C108.4505,58.5827 108.3905,58.5467 108.3575,58.5027 C108.3245,58.4587 108.3075,58.4087 108.3075,58.3527 L108.3075,54.5737 L105.3675,48.7187 C105.2625,48.5127 105.1945,48.3537 105.1645,48.2407 C105.1335,48.1277 105.1495,48.0417 105.2135,47.9827 C105.2775,47.9257 105.3955,47.8887 105.5665,47.8747 C105.7385,47.8607 105.9765,47.8537 106.2815,47.8537 C106.5355,47.8537 106.7395,47.8597 106.8915,47.8707 C107.0435,47.8827 107.1645,47.9027 107.2525,47.9327 C107.3415,47.9637 107.4065,48.0037 107.4485,48.0527 C107.4895,48.1027 107.5295,48.1677 107.5685,48.2447 L108.7645,50.8857 C108.8805,51.1397 108.9955,51.4087 109.1095,51.6917 C109.2225,51.9737 109.3375,52.2697 109.4545,52.5807 L109.4705,52.5807 C109.5755,52.2807 109.6835,51.9907 109.7945,51.7087 C109.9055,51.4257 110.0135,51.1577 110.1185,50.9027 L111.2975,48.2777 C111.3255,48.1887 111.3605,48.1187 111.4015,48.0657 C111.4435,48.0127 111.5055,47.9697 111.5885,47.9367 C111.6715,47.9037 111.7855,47.8827 111.9295,47.8707 C112.0725,47.8597 112.2645,47.8537 112.5015,47.8537 C112.8175,47.8537 113.0635,47.8607 113.2375,47.8747 C113.4115,47.8887 113.5305,47.9257 113.5945,47.9827 C113.6585,48.0417 113.6725,48.1287 113.6395,48.2447 C113.6065,48.3607 113.5405,48.5187 113.4405,48.7187 L110.5005,54.5737 Z" id="Fill-33" fill="#FFFFFF" mask="url(#mask-8)"></path>
                <mask id="mask-10" fill="white">
                    <use xlink:href="#path-9"></use>
                </mask>
                <g id="Clip-25"></g>
                <path d="M61.6533,49.9556 L61.6453,49.9556 L60.1253,54.5236 L63.1733,54.5236 L61.6533,49.9556 Z M66.5873,57.8376 C66.6533,58.0376 66.6953,58.1946 66.7123,58.3106 C66.7283,58.4276 66.7063,58.5156 66.6453,58.5726 C66.5843,58.6316 66.4763,58.6676 66.3213,58.6816 C66.1663,58.6946 65.9533,58.7016 65.6813,58.7016 C65.3993,58.7016 65.1793,58.6976 65.0213,58.6886 C64.8633,58.6816 64.7433,58.6646 64.6603,58.6396 C64.5773,58.6146 64.5193,58.5796 64.4863,58.5356 C64.4523,58.4916 64.4243,58.4336 64.4033,58.3606 L63.6803,56.2016 L59.6433,56.2016 L58.9623,58.3036 C58.9403,58.3806 58.9113,58.4456 58.8753,58.4986 C58.8393,58.5516 58.7803,58.5926 58.7003,58.6226 C58.6203,58.6526 58.5073,58.6746 58.3603,58.6846 C58.2133,58.6956 58.0213,58.7016 57.7823,58.7016 C57.5283,58.7016 57.3283,58.6936 57.1853,58.6776 C57.0413,58.6606 56.9413,58.6196 56.8853,58.5566 C56.8303,58.4926 56.8113,58.4026 56.8273,58.2866 C56.8443,58.1706 56.8853,58.0156 56.9523,57.8206 L60.2663,48.2856 C60.2993,48.1916 60.3383,48.1156 60.3823,48.0586 C60.4263,47.9996 60.4973,47.9556 60.5943,47.9256 C60.6913,47.8936 60.8253,47.8746 60.9973,47.8666 C61.1693,47.8576 61.3963,47.8536 61.6783,47.8536 C62.0053,47.8536 62.2653,47.8576 62.4593,47.8666 C62.6533,47.8746 62.8033,47.8936 62.9113,47.9256 C63.0203,47.9556 63.0973,48.0016 63.1443,48.0616 C63.1913,48.1226 63.2313,48.2056 63.2643,48.3106 L66.5873,57.8376 Z" id="Fill-24" fill="#FFFFFF" mask="url(#mask-10)"></path>
                <mask id="mask-12" fill="white">
                    <use xlink:href="#path-11"></use>
                </mask>
                <g id="Clip-22"></g>
                <path d="M49.228,58.27 C49.2,58.364 49.165,58.44 49.12,58.499 C49.076,58.556 49.004,58.601 48.904,58.631 C48.805,58.662 48.669,58.681 48.497,58.689 C48.326,58.698 48.101,58.702 47.824,58.702 C47.603,58.702 47.413,58.701 47.255,58.698 C47.098,58.695 46.963,58.688 46.853,58.677 C46.742,58.666 46.652,58.649 46.582,58.626 C46.513,58.605 46.455,58.577 46.408,58.543 C46.361,58.51 46.325,58.47 46.3,58.423 C46.275,58.376 46.252,58.317 46.229,58.245 L43.032,48.718 C42.965,48.519 42.925,48.361 42.912,48.245 C42.897,48.128 42.925,48.041 42.995,47.983 C43.064,47.925 43.182,47.889 43.348,47.874 C43.514,47.861 43.746,47.854 44.045,47.854 C44.3,47.854 44.499,47.86 44.643,47.871 C44.787,47.882 44.898,47.901 44.976,47.929 C45.053,47.957 45.107,47.999 45.138,48.053 C45.168,48.109 45.197,48.178 45.225,48.261 L47.841,56.55 L47.849,56.55 L50.416,48.302 C50.438,48.208 50.466,48.132 50.499,48.075 C50.532,48.016 50.589,47.97 50.669,47.937 C50.749,47.904 50.864,47.882 51.014,47.871 C51.164,47.86 51.368,47.854 51.628,47.854 C51.883,47.854 52.081,47.863 52.222,47.879 C52.364,47.896 52.46,47.936 52.513,47.999 C52.565,48.063 52.582,48.153 52.563,48.269 C52.543,48.386 52.5,48.541 52.434,48.735 L49.228,58.27 Z" id="Fill-21" fill="#FFFFFF" mask="url(#mask-12)"></path>
            </g>
        </g>
    </g>
</svg>